<?xml version="1.0" encoding="utf-8"?>
<!-- Generator: Adobe Illustrator 19.1.0, SVG Export Plug-In . SVG Version: 6.00 Build 0)  -->
<svg version="1.1" id="Layer_1" xmlns="http://www.w3.org/2000/svg" xmlns:xlink="http://www.w3.org/1999/xlink" x="0px" y="0px"
	 viewBox="-105 197 400 400" style="enable-background:new -105 197 400 400;" xml:space="preserve">
<style type="text/css">
	.st0{fill:#333333;}
	.st1{fill:#0071BC;}
	.st2{fill:#363636;}
</style>
<g>
	<path class="st0" d="M-47.3,506.8h-5.4v-23.7h5.4l9.5,14.8l0,0v-14.8h5.4v23.7h-5.4l-9.5-14.8l0,0V506.8z"/>
	<path class="st0" d="M9.2,487.7H1v4.6h7.8v4.8H1v4.8h8.2v4.8H-4.4V483H9.2V487.7z"/>
	<path class="st0" d="M35.2,483h16.7v4.8h-5.6v18.9h-5.4v-18.9h-5.6V483H35.2z"/>
	<path class="st0" d="M92.9,493.5l-3.8,13.3h-6l-6.7-23.7h5.9l4,16.4h0.1l4.3-16.4h4l4.3,16.4h0.4l4-16.4h6l-6.7,23.7h-6L92.9,493.5
		z"/>
	<path class="st0" d="M145.2,482.6c6.6,0,12,5.4,12,12.2c0,7-5.1,12.3-12,12.3c-7.1,0-12-5.4-12-12.3
		C133.2,487.9,138.6,482.6,145.2,482.6z M145.2,501.9c4.3,0,6.1-3.5,6.1-7.1c0-3.4-2-7.1-6.1-7.1c-4.2,0-6.1,3.5-6.1,7.1
		C139.1,498.4,140.8,501.9,145.2,501.9z"/>
	<path class="st0" d="M192.5,483c4.4,0,7.8,2.4,7.8,7.1c0,3.5-2,6-4.9,6.8l8.2,9.9h-6.8l-7.2-9.4v9.4h-5.4v-23.7L192.5,483
		L192.5,483z M190,493.6c2.1,0,4.4-0.1,4.4-3.2c0-3.1-2.4-3.2-4.4-3.2h-0.6v6.2h0.6V493.6z"/>
	<path class="st0" d="M243.2,506.8l-8.8-10.1v10.1H229v-23.7h5.4v9.8l8.2-9.8h6.6l-9.7,11.2l11,12.5L243.2,506.8L243.2,506.8z"/>
</g>
<path class="st1" d="M223.8,379c0.7,8.6-2,16.7-7.5,22.9c-5.9,6.6-14.7,10.2-24.6,10.2H-22.6l0,0c-0.1,0-0.2,0-0.3,0H-23h-0.2l0,0
	c-8.7-0.1-16.9-3.5-23-9.6c-6.5-6.4-10-15-10.1-24.1l0,0c0-16.9,11.5-30.6,27.2-33.2c2.1-14.1,14.4-25.6,29.6-28
	c0.9-5.6,3.6-11,7.9-15.4c6.2-6.4,14.6-10,23.2-10c11.1,0,20.8,6,26,15C63.7,285,83.7,269,107.4,269c25.9,0,47.5,19.2,51.1,44.2
	c13-9.7,30.3-8.8,43.3,3.4l-1.4-1.2c10.4,8.4,14,19.8,13.5,29.4c-0.3,5.7-2.2,10.7-5.6,14.8c3.3,1.1,6,3,8.6,5.6
	c3.6,3.6,6.1,8.1,6.8,13.1l0,0c0,0.2,0,0.4,0,0.6C223.8,378.7,223.8,378.8,223.8,379z M239.9,298.3c-7.6-10.3-18.9-17.9-31.3-21.1
	c-2.8-0.6-5.7,1.3-6.3,4c-1.1,2.8,0.7,6.4,3.7,7c12.5,3.3,23.3,12.1,29,23.7c4.7,9.5,5.9,20.7,3.3,31c-0.7,2.9,1.4,6,4.4,6.4
	c2.7,0.8,5.7-0.8,6.6-3.4C253.4,329.8,249.9,311.7,239.9,298.3z M204.2,296.7c-4.3-0.8-7.6,4.5-5.7,8.2c0.7,1.6,2.3,2.7,4,3.1
	c6.5,1.7,12.2,6.2,15.2,12.2c2.7,5.3,3.3,11.5,1.8,17.2c-0.8,2.9,1.3,6.1,4.3,6.6c2.7,0.8,5.9-0.8,6.7-3.6
	c2.8-10.2,0.7-21.6-5.5-30.1C220,303.5,212.5,298.3,204.2,296.7z"/>
<g>
	<path class="st2" d="M-56.2,429.9h27.7v7.9h-9.4v31.5h-9v-31.5h-9.4L-56.2,429.9L-56.2,429.9z"/>
	<path class="st2" d="M-14.3,469.4h-9v-39.5h9v15.8h12.7v-15.8h9v39.5h-9v-15.9h-12.7V469.4z"/>
	<path class="st2" d="M37.6,437.9H24.1v7.8h13v7.9h-13v7.9h13.6v7.9H15v-39.5h22.6V437.9L37.6,437.9z"/>
	<path class="st2" d="M54.9,429.9h27.7v7.9h-9.4v31.5h-9v-31.5h-9.4L54.9,429.9L54.9,429.9z"/>
	<path class="st2" d="M96.8,469.4h-9v-39.5h9v15.8h12.7v-15.8h9v39.5h-9v-15.9H96.8V469.4z"/>
	<path class="st2" d="M135.2,469.4h-9v-39.5h9V469.4z"/>
	<path class="st2" d="M151.8,469.4h-9v-39.5h9l15.6,24.4h0.1v-24.4h9v39.5h-9L151.9,445h-0.1V469.4z"/>
	<path class="st2" d="M219.8,455.8c-2.2,10-10.5,14.3-18.2,14.3c-10.6,0-19.2-9.2-19.2-20.4c0-11.4,8.2-20.4,19.2-20.4
		c7,0,11.7,2.6,15.2,6.7l-5.9,6.5c-2.3-3.7-5.3-5-8.8-5c-5.5,0-10,5.5-10,12.3c0,6.7,4.5,12.1,10,12.1c4.3,0,8.6-2.8,8.6-7.6h-9v-7
		h18.2V455.8L219.8,455.8z"/>
	<path class="st2" d="M251.6,433l-3.7,7.2c0,0-3.9-2.7-7.9-2.7c-3.1,0-4.6,1.3-4.6,3.5c0,2.2,3.8,3.8,8.2,5.7
		c4.4,1.8,9.3,5.6,9.3,10.8c0,9.4-7.2,12.7-14.9,12.7c-9.3,0-14.8-5.3-14.8-5.3l4.5-7.6c0,0,5.3,4.4,9.7,4.4c2,0,5.7-0.2,5.7-3.9
		c0-2.8-4.2-4.2-8.9-6.5c-4.8-2.3-7.5-6-7.5-10.1c0-7.3,6.5-12.1,12.8-12.1C246.5,429.2,251.6,433,251.6,433z"/>
</g>
</svg>
